<svg width="114" height="33" viewBox="0 0 114 33" fill="none" xmlns="http://www.w3.org/2000/svg">
<g clip-path="url(#clip0_6459_1651)">
<path fill-rule="evenodd" clip-rule="evenodd" d="M30.8194 14.9168C32.2489 13.2321 33.9918 12.3802 36.0162 12.3802C39.5151 12.3802 43.1322 15.2656 43.1322 20.0891V20.1443C43.1322 25.0042 39.5133 27.9085 36.0162 27.9085C33.9618 27.9085 32.2189 27.0891 30.8194 25.4711V26.5498C30.8194 27.1882 30.3391 27.6894 29.7256 27.6894C29.0972 27.6894 28.6038 27.1901 28.6038 26.5498V8.62008C28.6038 7.95877 29.0633 7.47852 29.6974 7.47852C30.3372 7.47852 30.8194 7.97021 30.8194 8.62008V14.9168ZM40.8095 20.2016V20.1463C40.8095 16.9733 38.6915 14.5795 35.8811 14.5814C33.4083 14.5814 30.7387 16.6988 30.7387 20.1197V20.175C30.7387 22.8373 32.7048 25.7132 35.8811 25.7132C38.8284 25.7132 40.8095 23.4987 40.8095 20.2016Z" fill="#2ABD61"/>
<path d="M52.5074 12.4912C50.9446 12.4912 48.879 13.4212 47.4456 15.428V13.7415C47.4456 13.0915 46.9635 12.6017 46.3238 12.6017C45.7102 12.6017 45.23 13.1029 45.23 13.7415V26.5522C45.23 27.202 45.7121 27.6917 46.3518 27.6917C46.9654 27.6917 47.4456 27.1906 47.4456 26.5522V21.4064C47.4456 16.9488 50.0816 15.1135 52.5355 14.881C53.1846 14.8392 53.6555 14.3379 53.6555 13.6861C53.6555 13.0153 53.1508 12.4912 52.5074 12.4912Z" fill="#2ABD61"/>
<path fill-rule="evenodd" clip-rule="evenodd" d="M60.8802 12.4947C62.7095 12.5519 64.2066 13.1236 65.2215 14.1566C66.2346 15.1915 66.7506 16.6246 66.7524 18.4199V26.55C66.7524 27.2093 66.2927 27.6895 65.6586 27.6895C65.0245 27.6895 64.5648 27.2113 64.5648 26.55V26.022C63.6137 26.9521 62.0734 27.9107 59.7714 27.9107C55.9986 27.9107 54.0249 25.477 54.0249 23.0738V23.0185C54.0249 19.9806 56.5539 18.0177 60.4693 18.0177C62.2309 18.0177 63.4954 18.2312 64.563 18.4904V18.4751C64.563 15.4563 62.5349 14.7227 60.7338 14.6654L57.2125 14.8788C56.5896 14.8788 56.1018 14.3224 56.0773 13.684C56.0493 12.975 56.7152 12.4795 57.3288 12.4795L60.8802 12.489V12.4947ZM59.8482 25.74C62.5497 25.74 64.5871 24.0877 64.5871 21.8979V20.6668C63.5234 20.4038 62.1239 20.1371 60.3847 20.1371C57.8388 20.1371 56.3173 21.1852 56.3173 22.9385V22.9938C56.3173 24.7966 58.0939 25.74 59.8482 25.74Z" fill="#2ABD61"/>
<path d="M76.1122 12.3799C74.2755 12.3799 72.7445 13.0526 71.6152 14.339V13.7388C71.6152 13.0888 71.133 12.5991 70.4932 12.5991C69.8798 12.5991 69.3994 13.1002 69.3994 13.7388V26.5495C69.3994 27.1993 69.8816 27.6892 70.5214 27.6892C71.1555 27.6892 71.6152 27.2088 71.6152 26.5495V19.0483C71.6152 16.4259 73.4275 14.522 75.9246 14.522C78.371 14.522 79.8305 16.1324 79.8305 18.8291V26.5495C79.8305 27.1993 80.3128 27.6892 80.9525 27.6892C81.5866 27.6892 82.0463 27.2088 82.0463 26.5495V18.5832C82.0443 14.8154 79.7162 12.3799 76.1122 12.3799Z" fill="#2ABD61"/>
<path d="M96.5168 23.5211C96.1566 23.5211 95.9164 23.7232 95.7683 23.8738C94.5525 25.1106 93.2129 25.7376 91.7834 25.7376C88.8698 25.7376 86.5866 23.281 86.5866 20.1442V20.0889C86.5866 16.9824 88.8229 14.5507 91.6764 14.5507C93.4681 14.5507 94.6726 15.4825 95.6069 16.3879C95.7908 16.5746 96.0797 16.6871 96.3817 16.6871C97.0102 16.6871 97.5037 16.1858 97.5037 15.5474C97.5037 15.2443 97.3817 14.9317 97.1734 14.7221C96.0291 13.632 94.3725 12.3818 91.7046 12.3818C87.6035 12.3818 84.2659 15.8656 84.2659 20.146V20.2013C84.2659 24.4531 87.6035 27.9122 91.7046 27.9122C93.8941 27.9122 95.6256 27.1269 97.3198 25.3698C97.5037 25.1831 97.6125 24.9086 97.6125 24.6379C97.6106 24.0528 97.089 23.5211 96.5168 23.5211Z" fill="#2ABD61"/>
<path d="M106.299 12.3802C104.462 12.3802 102.931 13.0529 101.802 14.3394V8.62008C101.802 7.97973 101.308 7.47852 100.68 7.47852C100.066 7.47852 99.5862 7.97973 99.5862 8.62008V26.5498C99.5862 27.1996 100.068 27.6894 100.708 27.6894C101.342 27.6894 101.802 27.2092 101.802 26.5498V19.0486C101.802 16.4262 103.614 14.5223 106.111 14.5223C108.558 14.5223 110.017 16.1326 110.017 18.8294V26.5498C110.017 27.1996 110.499 27.6894 111.139 27.6894C111.773 27.6894 112.233 27.2092 112.233 26.5498V18.5836C112.231 14.8158 109.903 12.3802 106.299 12.3802Z" fill="#2ABD61"/>
<path fill-rule="evenodd" clip-rule="evenodd" d="M11.9291 1.82206C11.9621 1.88026 11.9901 1.92956 12.0133 1.96638C12.9428 3.43843 20.0055 14.7377 20.0037 18.8464C20.0037 23.1004 17.995 25.6551 13.0927 29.9351C13.0927 29.9351 11.5283 31.152 10.0028 31.152C8.59761 31.152 7.34055 30.3265 7.34055 30.3265C2.21605 26.2513 0 23.0986 0 18.8464C0 14.7377 7.00732 3.526 7.93484 2.05396C7.94656 2.03541 7.96015 2.01346 7.97558 1.98852C8.22838 1.58022 8.97333 0.376953 10.0028 0.376953C11.1096 0.376953 11.6732 1.37083 11.9291 1.82206ZM11.1117 16.5955L15.6142 12.9787C14.3367 10.3943 12.6742 7.42039 11.1117 4.78376V16.5955ZM2.21796 18.8464C2.21796 16.7259 5.75957 10.0719 8.89574 4.78376V28.3253C8.05894 27.9357 7.34246 27.2967 7.34246 27.2967C3.02144 23.2494 2.21796 21.8129 2.21796 18.8464ZM11.1117 28.3271C11.9485 27.9377 12.665 27.2967 12.665 27.2967C16.9841 23.2494 17.7895 21.8129 17.7895 18.8464C17.7895 18.0936 17.3414 16.7687 16.625 15.1365L16.5861 15.0526L11.1117 19.4501V28.3271Z" fill="#2ABD61"/>
</g>
<defs>
<clipPath id="clip0_6459_1651">
<rect width="113.231" height="32" fill="white" transform="translate(0 0.376953)"/>
</clipPath>
</defs>
</svg>
